<svg width="250" height="250" xmlns="http://www.w3.org/2000/svg">

 <g>
  <title>background</title>
  <rect fill="none" id="canvas_background" height="402" width="582" y="-1" x="-1"/>
 </g>
 <g>
  <title>Layer 1</title>
  <polygon fill="#ffffff" id="svg_2" points="126.15740549564362,31.157405495643616 126.15740549564362,31.157405495643616 126.15740549564362,31.157405495643616 33.05740511417389,64.35740625858307 47.25740396976471,187.45740854740143 126.15740549564362,231.15740549564362 126.15740549564362,231.15740549564362 126.15740549564362,231.15740549564362 205.057399392128,187.45740854740143 219.25741159915924,64.35740625858307 " class="st0"/>
  <polygon fill="#ffffff" id="svg_3" points="125,30 125,52.2 125,52.1 125,153.4 125,153.4 125,230 125,230 203.9,186.3 218.1,63.2 125,30  " class="st1"/>
  <path fill="#050000" id="svg_4" d="m125,52.1l-58.2,130.5l0,0l21.7,0l0,0l11.7,-29.2l49.4,0l11.7,29.2l0,0l21.7,0l0,0l-58,-130.5l0,0l0,0l0,0l0,0zm17,83.3l-34,0l17,-40.9l17,40.9z" class="st2"/>
  <path id="svg_5" d="m138.599514,175.347141" opacity="0.5" stroke-opacity="null" stroke-width="null" stroke="null" fill="#ffffff"/>
 </g>
</svg>