<svg width="128" height="128" xmlns="http://www.w3.org/2000/svg">

 <g>
  <title>background</title>
  <rect fill="none" id="canvas_background" height="402" width="582" y="-1" x="-1"/>
 </g>
 <g>
  <title>Layer 1</title>
  <path fill="#ffffff" id="svg_3" d="m87.4,47.4c0.6,-0.8 1,-1.9 1,-3c0,-2.6 -2.1,-4.8 -4.8,-4.8c-1.1,0 -2.2,0.4 -3,1c-4.7,-3.3 -10.4,-5.3 -16.6,-5.3c-15.8,0 -28.7,12.8 -28.7,28.7s12.9,28.7 28.7,28.7c15.8,0 28.7,-12.8 28.7,-28.7c0,-6.2 -2,-11.9 -5.3,-16.6zm-23.4,41c-13.4,0 -24.4,-10.9 -24.4,-24.4c0,-13.4 10.9,-24.4 24.4,-24.4c5.6,0 10.7,1.9 14.8,5c0.1,2.4 2.1,4.4 4.5,4.5c3.2,4.1 5.1,9.3 5.1,14.8c0,13.5 -11,24.5 -24.4,24.5z" class="st1"/>
  <circle fill="#ffffff" id="svg_4" r="13.2" cy="64" cx="64" class="st1"/>
 </g>
</svg>